<mxfile host="65bd71144e">
    <diagram id="WJOaURbmbuS77g5cmOvb" name="第 1 页">
        <mxGraphModel dx="829" dy="693" grid="1" gridSize="10" guides="1" tooltips="1" connect="1" arrows="1" fold="1" page="1" pageScale="1" pageWidth="827" pageHeight="1169" math="0" shadow="0">
            <root>
                <mxCell id="0"/>
                <mxCell id="1" parent="0"/>
                <mxCell id="2" value="&lt;h1 style=&quot;line-height: 1.2&quot;&gt;&lt;font face=&quot;微软雅黑&quot; size=&quot;1&quot;&gt;&lt;span style=&quot;font-weight: normal ; font-size: 26px&quot;&gt;东方宝贝幼儿园&lt;/span&gt;&lt;/font&gt;&lt;/h1&gt;" style="whiteSpace=wrap;html=1;aspect=fixed;align=center;" vertex="1" parent="1">
                    <mxGeometry x="650" y="195" width="120" height="120" as="geometry"/>
                </mxCell>
                <mxCell id="3" value="董田卫生院" style="whiteSpace=wrap;html=1;aspect=fixed;fontFamily=Courier New;fontSize=26;" vertex="1" parent="1">
                    <mxGeometry x="110" y="205" width="100" height="100" as="geometry"/>
                </mxCell>
                <mxCell id="5" value="" style="shape=flexArrow;endArrow=classic;html=1;fontFamily=Courier New;fontSize=26;exitX=0;exitY=0.5;exitDx=0;exitDy=0;entryX=1;entryY=0.5;entryDx=0;entryDy=0;startArrow=none;" edge="1" parent="1" source="8" target="3">
                    <mxGeometry width="50" height="50" relative="1" as="geometry">
                        <mxPoint x="390" y="290" as="sourcePoint"/>
                        <mxPoint x="440" y="240" as="targetPoint"/>
                    </mxGeometry>
                </mxCell>
                <mxCell id="7" value="目的地" style="whiteSpace=wrap;html=1;aspect=fixed;fontFamily=Courier New;fontSize=26;" vertex="1" parent="1">
                    <mxGeometry x="500" y="420" width="90" height="90" as="geometry"/>
                </mxCell>
                <mxCell id="8" value="" style="ellipse;whiteSpace=wrap;html=1;aspect=fixed;fontFamily=Courier New;fontSize=26;fillColor=#FF0000;fontColor=#ffffff;strokeColor=#FFFFFF;gradientColor=none;strokeWidth=2;" vertex="1" parent="1">
                    <mxGeometry x="440" y="232.5" width="45" height="45" as="geometry"/>
                </mxCell>
                <mxCell id="9" value="" style="shape=flexArrow;endArrow=none;html=1;fontFamily=Courier New;fontSize=26;exitX=0;exitY=0.5;exitDx=0;exitDy=0;entryX=1;entryY=0.5;entryDx=0;entryDy=0;" edge="1" parent="1" source="2" target="8">
                    <mxGeometry width="50" height="50" relative="1" as="geometry">
                        <mxPoint x="650" y="255" as="sourcePoint"/>
                        <mxPoint x="210" y="255" as="targetPoint"/>
                    </mxGeometry>
                </mxCell>
                <mxCell id="10" value="早餐店" style="whiteSpace=wrap;html=1;aspect=fixed;fontFamily=Courier New;fontSize=26;" vertex="1" parent="1">
                    <mxGeometry x="350" y="140" width="90" height="90" as="geometry"/>
                </mxCell>
                <mxCell id="11" value="" style="shape=flexArrow;endArrow=classic;html=1;fontFamily=Courier New;fontSize=26;exitX=0.5;exitY=1;exitDx=0;exitDy=0;endWidth=28;endSize=7.63;" edge="1" parent="1" source="8">
                    <mxGeometry width="50" height="50" relative="1" as="geometry">
                        <mxPoint x="390" y="260" as="sourcePoint"/>
                        <mxPoint x="463" y="520" as="targetPoint"/>
                    </mxGeometry>
                </mxCell>
                <mxCell id="13" value="东方宝贝幼儿园往董田卫生院方向，左手边第一个巷子（早餐店对面）" style="text;html=1;strokeColor=none;fillColor=none;align=center;verticalAlign=middle;whiteSpace=wrap;rounded=0;fontFamily=Courier New;fontSize=26;" vertex="1" parent="1">
                    <mxGeometry x="120" y="320" width="325" height="140" as="geometry"/>
                </mxCell>
            </root>
        </mxGraphModel>
    </diagram>
</mxfile>